# xmcd CD database file
#
# Track frame offsets:
#	150
#	69218
#	115083
#	148571
#
# Disc length: 3138 seconds
#
# Revision: 0
# Processed by: cddbd v1.5.1PL0 Copyright (c) Steve Scherf et al.
# Submitted via: CDex 1.51
#
DISCID=2e0c4004
DTITLE=Atomic - School Days - Nuclear Assembly Hall
DYEAR=2004
DGENRE=Jazz
TTITLE0=Conjugations
TTITLE1=Dogdays
TTITLE2=Light Compulsion
TTITLE3=Bulletin (for Weegee)
EXTD=YEAR: 2004
EXTT0=
EXTT1=
EXTT2=
EXTT3=
PLAYORDER=
